<svg width="56px" height="112px" viewBox="0 0 112 224" version="1.1" xmlns="http://www.w3.org/2000/svg">
<g id="#fefefefe">
<path fill="#fefefe" opacity="1.00" d=" M 42.09 22.08 C 50.69 21.94 59.30 21.95 67.91 22.08 C 68.05 25.35 68.03 28.63 67.92 31.91 C 63.95 32.07 59.97 31.98 56.00 32.00 C 56.00 34.00 56.00 36.00 56.00 38.00 C 60.67 38.00 65.33 38.00 70.00 38.00 C 75.40 47.06 80.14 56.53 85.97 65.31 C 85.93 70.49 86.20 75.69 85.85 80.86 C 85.12 82.33 83.39 81.91 82.06 82.02 C 64.02 81.99 45.99 81.99 27.95 82.01 C 26.62 81.90 24.91 82.33 24.16 80.88 C 23.79 75.71 24.07 70.50 24.03 65.31 C 29.86 56.53 34.60 47.06 40.00 38.00 C 44.67 38.00 49.33 38.00 54.00 38.00 C 54.00 36.00 54.00 34.00 54.00 32.00 C 50.03 31.98 46.06 32.07 42.09 31.92 C 41.96 28.64 41.96 25.36 42.09 22.08 M 44.00 24.00 C 44.00 26.00 44.00 28.00 44.00 30.00 C 51.33 30.00 58.67 30.00 66.00 30.00 C 66.00 28.00 66.00 26.00 66.00 24.00 C 58.67 24.00 51.33 24.00 44.00 24.00 M 27.42 64.00 C 45.81 64.00 64.19 64.00 82.58 64.00 C 78.03 56.00 73.36 48.07 68.93 40.00 C 59.64 40.00 50.36 40.00 41.07 40.00 C 36.64 48.07 31.97 56.00 27.42 64.00 M 26.00 66.00 C 26.00 70.67 26.00 75.33 26.00 80.00 C 45.33 80.00 64.67 80.00 84.00 80.00 C 84.00 75.33 84.00 70.67 84.00 66.00 C 64.67 66.00 45.33 66.00 26.00 66.00 Z" />
<path fill="#fefefe" opacity="1.00" d=" M 47.16 44.08 C 49.57 43.11 51.22 46.86 48.80 47.86 C 46.41 48.93 44.85 45.17 47.16 44.08 Z" />
<path fill="#fefefe" opacity="1.00" d=" M 53.18 44.10 C 55.60 43.13 57.16 46.78 54.85 47.88 C 52.41 48.91 50.82 45.19 53.18 44.10 Z" />
<path fill="#fefefe" opacity="1.00" d=" M 59.20 44.11 C 61.60 43.11 63.20 46.87 60.82 47.86 C 58.39 48.93 56.81 45.11 59.20 44.11 Z" />
<path fill="#fefefe" opacity="1.00" d=" M 47.16 50.11 C 49.55 49.05 51.23 52.86 48.79 53.85 C 46.40 54.93 44.84 51.16 47.16 50.11 Z" />
<path fill="#fefefe" opacity="1.00" d=" M 53.13 50.15 C 55.52 49.05 57.18 52.74 54.87 53.90 C 52.47 54.90 50.81 51.27 53.13 50.15 Z" />
<path fill="#fefefe" opacity="1.00" d=" M 59.21 50.09 C 61.64 49.13 63.15 52.85 60.80 53.91 C 58.35 54.89 56.86 51.13 59.21 50.09 Z" />
<path fill="#fefefe" opacity="1.00" d=" M 47.13 56.11 C 49.55 55.09 51.18 58.75 48.86 59.87 C 46.44 60.91 44.84 57.27 47.13 56.11 Z" />
<path fill="#fefefe" opacity="1.00" d=" M 53.21 56.13 C 55.58 55.08 57.20 58.89 54.80 59.88 C 52.39 60.92 50.80 57.09 53.21 56.13 Z" />
<path fill="#fefefe" opacity="1.00" d=" M 59.13 56.09 C 61.56 55.09 63.19 58.80 60.82 59.89 C 58.41 60.89 56.88 57.26 59.13 56.09 Z" />
<path fill="#fefefe" opacity="1.00" d=" M 49.86 72.28 C 52.45 72.51 57.07 70.42 58.12 73.73 C 55.52 73.48 50.96 75.56 49.86 72.28 Z" />
</g>
<g id="#0166affd">
<path fill="#0166af" opacity="1.00" d=" M 42.08 134.07 C 50.70 133.97 59.33 133.92 67.95 134.10 C 68.02 137.37 68.02 140.64 67.93 143.92 C 63.96 144.03 59.98 144.01 56.00 144.00 C 56.00 146.00 56.00 148.00 56.00 150.00 C 60.67 150.00 65.33 150.00 70.00 150.00 C 75.38 159.04 80.13 168.48 85.93 177.26 C 85.94 182.47 86.25 187.70 85.82 192.90 C 84.80 194.57 82.59 193.80 80.98 194.03 C 62.37 193.84 43.74 194.25 25.15 193.83 C 24.91 193.60 24.42 193.15 24.18 192.92 C 23.75 187.72 24.06 182.49 24.06 177.28 C 29.87 168.49 34.61 159.04 40.01 149.99 C 44.67 150.00 49.34 150.00 54.00 150.00 C 54.00 148.00 54.00 146.00 54.00 144.00 C 50.01 144.02 46.03 144.04 42.05 143.89 C 41.98 140.62 41.97 137.34 42.08 134.07 M 44.00 136.00 C 44.00 138.00 44.00 140.00 44.00 142.00 C 51.33 142.00 58.67 142.00 66.00 142.00 C 66.00 140.00 66.00 138.00 66.00 136.00 C 58.67 136.00 51.33 136.00 44.00 136.00 M 41.07 152.01 C 36.63 160.07 31.97 168.01 27.42 176.00 C 45.81 176.00 64.19 176.00 82.58 176.00 C 78.03 168.00 73.37 160.07 68.93 152.01 C 59.64 151.99 50.36 151.99 41.07 152.01 M 26.00 178.00 C 26.00 182.67 26.00 187.33 26.00 192.00 C 45.33 192.00 64.67 192.00 84.00 192.00 C 84.00 187.33 84.00 182.67 84.00 178.00 C 64.67 178.00 45.33 178.00 26.00 178.00 Z" />
<path fill="#0166af" opacity="1.00" d=" M 47.21 156.15 C 49.55 155.07 51.16 158.77 48.89 159.87 C 46.51 161.01 44.73 157.15 47.21 156.15 Z" />
<path fill="#0166af" opacity="1.00" d=" M 53.19 156.20 C 55.41 154.87 57.33 158.98 54.79 159.81 C 52.54 161.08 50.70 157.04 53.19 156.20 Z" />
<path fill="#0166af" opacity="1.00" d=" M 59.14 156.19 C 61.51 154.95 63.26 158.88 60.80 159.92 C 58.43 160.86 56.79 157.19 59.14 156.19 Z" />
<path fill="#0166af" opacity="1.00" d=" M 47.19 162.13 C 49.54 161.08 51.16 164.74 48.89 165.88 C 46.50 166.98 44.76 163.21 47.19 162.13 Z" />
<path fill="#0166af" opacity="1.00" d=" M 53.19 162.17 C 55.47 160.96 57.27 164.89 54.83 165.85 C 52.46 166.99 50.75 163.10 53.19 162.17 Z" />
<path fill="#0166af" opacity="1.00" d=" M 59.16 162.14 C 61.54 161.04 63.19 164.80 60.84 165.91 C 58.46 166.94 56.81 163.22 59.16 162.14 Z" />
<path fill="#0166af" opacity="1.00" d=" M 47.23 168.14 C 49.52 167.03 51.27 170.94 48.80 171.83 C 46.44 173.01 44.74 169.03 47.23 168.14 Z" />
<path fill="#0166af" opacity="1.00" d=" M 53.17 168.11 C 55.56 167.10 57.12 170.70 54.90 171.89 C 52.45 172.96 50.80 169.21 53.17 168.11 Z" />
<path fill="#0166af" opacity="1.00" d=" M 59.17 168.08 C 61.55 167.13 63.18 170.75 60.85 171.88 C 58.44 172.92 56.81 169.22 59.17 168.08 Z" />
<path fill="#0166af" opacity="1.00" d=" M 49.82 185.78 C 50.79 182.73 55.03 184.14 57.39 184.31 C 57.59 184.67 57.99 185.40 58.19 185.76 C 55.41 186.02 52.61 186.02 49.82 185.78 Z" />
</g>
</svg>