<svg width="58px" height="58px" viewBox="0 0 116 116" version="1.1" xmlns="http://www.w3.org/2000/svg">
<g id="#0e1316ef">
<path fill="#0e1316" opacity="0.94" d=" M 19.48 33.70 C 20.62 32.06 22.04 30.65 23.68 29.51 C 45.90 29.65 68.13 29.66 90.35 29.50 C 92.22 30.88 94.97 32.17 94.56 34.95 C 94.48 49.73 94.59 64.52 94.50 79.30 C 93.40 80.37 92.32 81.44 91.23 82.51 C 68.43 82.59 45.63 82.49 22.84 82.55 C 21.67 81.19 20.55 79.79 19.47 78.35 C 19.68 63.48 19.66 48.58 19.48 33.70 M 23.37 32.27 C 21.73 32.84 21.99 34.66 21.96 36.03 C 22.14 50.05 21.93 64.09 22.02 78.11 C 21.99 80.16 24.58 80.05 26.01 80.07 C 46.66 80.05 67.32 80.04 87.98 80.08 C 89.44 79.97 92.30 80.34 92.10 78.05 C 92.18 63.38 92.21 48.70 92.09 34.03 C 92.32 32.37 90.26 32.03 89.07 32.12 C 67.17 32.23 45.25 31.94 23.37 32.27 Z" />
<path fill="#0e1316" opacity="0.94" d=" M 26.14 36.12 C 44.80 36.03 63.46 36.05 82.12 36.10 C 82.12 49.45 82.12 62.81 82.12 76.16 C 63.46 76.15 44.80 76.16 26.13 76.16 C 26.14 62.81 26.13 49.46 26.14 36.12 M 28.09 38.11 C 28.18 50.13 28.19 62.14 28.09 74.15 C 45.39 74.17 62.69 74.16 79.99 74.16 C 79.94 62.14 79.94 50.12 79.99 38.10 C 62.69 38.08 45.39 38.05 28.09 38.11 Z" />
<path fill="#0e1316" opacity="0.94" d=" M 44.43 48.45 C 47.09 48.33 49.04 50.27 51.15 51.54 C 55.90 54.81 60.95 57.65 65.57 61.11 C 65.46 63.57 62.94 61.67 61.91 61.09 C 57.11 57.88 52.28 54.73 47.41 51.64 C 46.12 50.88 45.04 49.84 44.43 48.45 Z" />
<path fill="#0e1316" opacity="0.94" d=" M 86.17 52.45 C 86.65 52.31 87.60 52.04 88.08 51.90 C 88.09 54.06 88.10 56.22 88.07 58.39 C 84.89 58.42 86.06 54.52 86.17 52.45 Z" />
<path fill="#0e1316" opacity="0.94" d=" M 44.46 56.83 C 49.53 56.94 53.04 61.57 57.40 63.70 C 55.95 66.22 53.77 63.71 52.16 62.77 C 49.58 60.82 46.23 59.70 44.46 56.83 Z" />
</g>
<g id="#ffffffff">
<path fill="#ffffff" opacity="1.00" d=" M 23.37 32.27 C 45.25 31.94 67.17 32.23 89.07 32.12 C 90.26 32.03 92.32 32.37 92.09 34.03 C 92.21 48.70 92.18 63.38 92.10 78.05 C 92.30 80.34 89.44 79.97 87.98 80.08 C 67.32 80.04 46.66 80.05 26.01 80.07 C 24.58 80.05 21.99 80.16 22.02 78.11 C 21.93 64.09 22.14 50.05 21.96 36.03 C 21.99 34.66 21.73 32.84 23.37 32.27 M 26.14 36.12 C 26.13 49.46 26.14 62.81 26.13 76.16 C 44.80 76.16 63.46 76.15 82.12 76.16 C 82.12 62.81 82.12 49.45 82.12 36.10 C 63.46 36.05 44.80 36.03 26.14 36.12 M 86.17 52.45 C 86.06 54.52 84.89 58.42 88.07 58.39 C 88.10 56.22 88.09 54.06 88.08 51.90 C 87.60 52.04 86.65 52.31 86.17 52.45 Z" />
<path fill="#ffffff" opacity="1.00" d=" M 28.09 38.11 C 45.39 38.05 62.69 38.08 79.99 38.10 C 79.94 50.12 79.94 62.14 79.99 74.16 C 62.69 74.16 45.39 74.17 28.09 74.15 C 28.19 62.14 28.18 50.13 28.09 38.11 M 44.43 48.45 C 45.04 49.84 46.12 50.88 47.41 51.64 C 52.28 54.73 57.11 57.88 61.91 61.09 C 62.94 61.67 65.46 63.57 65.57 61.11 C 60.95 57.65 55.90 54.81 51.15 51.54 C 49.04 50.27 47.09 48.33 44.43 48.45 M 44.46 56.83 C 46.23 59.70 49.58 60.82 52.16 62.77 C 53.77 63.71 55.95 66.22 57.40 63.70 C 53.04 61.57 49.53 56.94 44.46 56.83 Z" />
</g>
</svg>