<svg width="145px" height="33px" viewBox="0 0 1450 330" version="1.1" xmlns="http://www.w3.org/2000/svg">
<g id="#ffffffff">
<path fill="#ffffff" opacity="1.00" d=" M 31.32 0.00 L 45.31 0.00 C 61.72 0.85 75.70 15.58 75.75 31.99 C 75.78 105.66 75.75 179.33 75.77 253.00 C 133.51 253.00 191.25 253.00 248.99 253.00 C 256.92 252.99 264.79 256.03 270.63 261.39 C 277.53 267.54 281.51 276.72 281.51 285.94 C 281.42 293.52 282.28 301.41 279.41 308.63 C 275.05 320.88 262.80 329.83 249.76 330.00 L 30.37 330.00 C 13.89 329.08 -0.00 314.19 0.00 297.72 L 0.00 31.32 C 0.53 14.90 14.77 0.30 31.32 0.00 Z" />
<path fill="#ffffff" opacity="1.00" d=" M 356.31 0.00 L 369.72 0.00 C 381.38 0.57 392.32 7.94 397.30 18.47 C 399.47 22.99 400.57 28.00 400.59 33.00 C 400.58 118.35 400.59 203.69 400.59 289.03 C 400.59 295.31 401.01 301.78 398.81 307.80 C 394.77 320.23 382.68 329.46 369.60 330.00 L 355.25 330.00 C 338.85 329.11 324.91 314.35 324.85 297.96 C 324.81 209.32 324.81 120.67 324.85 32.03 C 324.89 15.30 339.48 0.19 356.31 0.00 Z" />
<path fill="#ffffff" opacity="1.00" d=" M 485.36 0.00 L 498.72 0.00 C 508.53 0.17 518.05 5.13 523.88 13.00 C 525.75 15.54 527.03 18.52 529.30 20.76 C 583.23 75.51 637.12 130.30 691.04 185.06 C 695.27 189.55 699.91 193.67 703.85 198.43 C 703.67 142.96 703.78 87.49 703.79 32.02 C 703.85 15.27 718.44 0.18 735.28 0.00 L 748.67 0.00 C 765.20 0.58 779.44 15.40 779.51 31.91 C 779.54 120.63 779.54 209.35 779.51 298.07 C 779.44 314.88 764.66 329.97 747.76 330.00 L 734.21 330.00 C 731.03 329.70 727.95 328.91 724.89 328.09 C 725.05 328.57 725.38 329.52 725.54 330.00 L 714.65 330.00 C 653.79 268.29 593.05 206.45 532.21 144.73 C 530.31 143.28 530.66 140.74 530.32 138.65 C 530.80 163.08 530.40 187.52 530.53 211.96 C 530.48 240.95 530.62 269.95 530.46 298.94 C 529.91 315.42 515.33 329.94 498.76 330.00 L 485.17 330.00 C 479.35 329.48 473.62 327.58 468.84 324.18 C 460.05 318.15 454.67 307.63 454.76 296.99 C 454.77 209.00 454.77 121.01 454.76 33.01 C 454.70 23.36 459.06 13.76 466.52 7.59 C 471.77 3.10 478.49 0.52 485.36 0.00 Z" />
<path fill="#ffffff" opacity="1.00" d=" M 1067.40 0.00 L 1068.44 0.00 C 1075.78 0.21 1083.12 2.52 1089.00 6.99 C 1099.26 14.45 1105.01 27.42 1104.02 40.02 C 1103.53 47.60 1100.59 54.95 1095.86 60.89 C 1068.89 95.57 1041.93 130.24 1014.96 164.92 C 1039.81 196.78 1064.64 228.65 1089.49 260.52 C 1094.56 267.24 1100.71 273.57 1102.92 281.95 C 1107.98 298.22 1100.46 317.42 1085.39 325.52 C 1074.05 332.00 1059.08 331.23 1048.52 323.54 C 1043.36 320.02 1039.86 314.76 1036.04 309.95 C 1013.70 281.29 991.37 252.64 969.03 223.99 C 944.96 254.92 920.92 285.89 896.83 316.81 C 890.34 325.03 880.10 329.96 869.63 330.00 L 869.44 330.00 C 858.53 329.77 847.97 324.27 841.51 315.48 C 832.86 304.16 831.50 287.85 838.17 275.26 C 841.41 269.34 846.09 264.39 850.07 258.98 C 874.42 227.67 898.76 196.37 923.10 165.07 C 895.92 130.20 868.73 95.34 841.57 60.46 C 833.51 50.40 831.43 36.11 835.98 24.08 C 840.05 12.69 850.09 3.51 861.97 0.93 C 870.92 -1.16 880.69 0.60 888.35 5.66 C 894.92 9.72 899.01 16.42 903.77 22.28 C 925.52 50.19 947.27 78.10 969.03 106.00 C 993.09 75.08 1017.12 44.12 1041.20 13.22 C 1047.44 5.23 1057.29 0.38 1067.40 0.00 Z" />
<path fill="#ffffff" opacity="1.00" d=" M 1204.53 0.00 L 1206.32 0.00 C 1216.47 0.46 1226.31 5.40 1232.53 13.47 C 1256.58 44.31 1280.64 75.15 1304.67 106.02 C 1328.64 75.17 1352.63 44.33 1376.62 13.49 C 1382.95 5.30 1392.98 0.26 1403.33 0.00 L 1404.37 0.00 C 1415.30 0.25 1425.88 5.82 1432.32 14.65 C 1442.06 27.48 1442.27 46.63 1432.52 59.51 C 1405.29 94.70 1377.88 129.75 1350.63 164.93 C 1375.50 196.89 1400.42 228.81 1425.31 260.75 C 1430.21 267.25 1436.14 273.36 1438.39 281.42 C 1443.46 296.97 1437.06 315.41 1423.21 324.21 C 1417.71 327.85 1411.20 329.71 1404.65 330.00 L 1404.43 330.00 C 1393.71 330.00 1383.19 324.89 1376.70 316.34 C 1352.65 285.59 1328.70 254.74 1304.65 223.98 C 1280.84 254.69 1256.95 285.32 1233.12 316.01 C 1228.70 321.77 1222.59 326.26 1215.62 328.39 C 1205.30 331.64 1193.58 329.58 1184.90 323.16 C 1172.25 314.10 1166.57 296.78 1171.13 281.94 C 1173.56 272.88 1180.43 266.17 1185.83 258.83 C 1210.13 227.57 1234.45 196.33 1258.73 165.06 C 1231.46 130.04 1204.13 95.05 1176.87 60.01 C 1165.32 45.43 1167.22 22.47 1180.91 9.91 C 1187.22 3.83 1195.78 0.31 1204.53 0.00 Z" />
</g>
</svg>