<svg width="56px" height="112px" viewBox="0 0 112 224" version="1.1" xmlns="http://www.w3.org/2000/svg">
<g id="#ffffffff">
<path fill="#ffffff" opacity="1.00" d=" M 35.15 26.16 C 49.44 25.78 63.76 26.12 78.06 25.99 C 79.51 25.96 82.09 25.79 81.94 27.93 C 82.08 46.30 81.97 64.67 82.00 83.04 C 82.16 84.27 81.69 86.16 80.07 85.94 C 66.03 86.10 51.99 85.94 37.95 86.02 C 36.64 85.92 35.01 86.27 34.15 84.99 C 33.87 82.69 34.02 80.37 34.01 78.07 C 32.06 77.73 29.43 78.73 28.10 76.85 C 27.27 73.26 31.83 74.06 34.00 73.93 C 34.00 71.98 34.00 70.02 34.00 68.07 C 32.06 67.73 29.42 68.74 28.10 66.83 C 27.29 63.25 31.82 64.06 34.00 63.93 C 34.00 61.98 34.00 60.02 34.00 58.07 C 32.06 57.72 29.36 58.77 28.09 56.80 C 27.32 53.24 31.85 54.07 34.00 53.93 C 34.00 51.98 34.00 50.02 34.00 48.07 C 32.06 47.72 29.40 48.75 28.09 46.82 C 27.30 43.25 31.84 44.06 34.00 43.93 C 34.00 41.98 34.00 40.02 34.00 38.07 C 32.06 37.71 29.37 38.77 28.10 36.80 C 27.30 33.24 31.85 34.07 34.01 33.93 C 34.44 31.44 32.89 27.90 35.15 26.16 M 36.00 28.00 C 36.00 29.92 36.00 31.84 36.00 33.77 C 37.34 34.13 40.14 33.85 39.94 35.96 C 40.27 38.08 37.35 37.88 36.00 38.23 C 36.00 40.08 36.00 41.92 35.99 43.76 C 37.34 44.12 40.19 43.89 39.95 46.00 C 40.17 48.11 37.36 47.90 36.00 48.23 C 36.00 50.07 36.00 51.92 36.00 53.76 C 37.34 54.13 40.18 53.89 39.95 55.99 C 40.17 58.11 37.38 57.91 36.00 58.22 C 36.00 60.07 36.00 61.92 35.99 63.77 C 37.36 64.11 40.15 63.89 39.95 65.99 C 40.17 68.11 37.37 67.91 36.00 68.22 C 36.00 70.07 36.00 71.92 36.00 73.77 C 37.36 74.10 40.19 73.89 39.95 76.01 C 40.18 78.11 37.34 77.87 36.00 78.24 C 36.00 80.16 36.00 82.08 36.00 84.00 C 50.67 84.00 65.33 84.00 80.00 84.00 C 80.00 65.33 80.00 46.67 80.00 28.00 C 65.33 28.00 50.67 28.00 36.00 28.00 Z" />
<path fill="#ffffff" opacity="1.00" d=" M 50.18 40.00 C 56.73 40.00 63.28 40.00 69.83 40.00 C 69.83 40.50 69.83 41.50 69.83 42.00 C 63.28 42.00 56.72 42.00 50.17 42.00 C 50.17 41.50 50.18 40.50 50.18 40.00 Z" />
<path fill="#ffffff" opacity="1.00" d=" M 50.18 44.00 C 56.74 44.00 63.29 44.00 69.84 44.00 C 69.84 44.50 69.83 45.50 69.82 46.00 C 63.27 46.00 56.72 46.00 50.17 46.00 C 50.17 45.50 50.18 44.50 50.18 44.00 Z" />
<path fill="#ffffff" opacity="1.00" d=" M 50.18 74.00 C 56.73 74.00 63.28 74.00 69.83 74.00 C 69.83 74.50 69.83 75.50 69.83 76.00 C 63.28 76.00 56.72 76.00 50.17 76.00 C 50.17 75.50 50.18 74.50 50.18 74.00 Z" />
</g>
<g id="#0066b0ff">
<path fill="#0066b0" opacity="1.00" d=" M 35.06 138.19 C 49.01 137.71 62.99 138.18 76.95 137.96 C 78.66 138.13 81.94 137.36 81.93 139.99 C 82.12 158.00 81.92 176.02 82.02 194.03 C 82.02 195.49 82.22 197.99 80.08 197.91 C 66.40 198.16 52.70 197.89 39.02 198.04 C 37.42 197.80 35.24 198.53 34.19 196.93 C 33.84 194.67 33.99 192.38 34.00 190.12 C 32.06 189.76 29.52 190.61 28.10 188.89 C 27.23 185.30 31.84 186.09 34.00 185.88 C 34.00 183.96 34.00 182.03 34.00 180.11 C 32.06 179.74 29.42 180.69 28.10 178.81 C 27.33 175.27 31.86 176.10 34.00 175.89 C 34.00 173.96 34.00 172.03 34.00 170.11 C 32.03 169.73 28.25 170.88 28.01 167.97 C 28.35 165.10 32.04 166.28 34.00 165.89 C 34.00 163.96 34.00 162.04 34.00 160.11 C 32.06 159.76 29.48 160.64 28.09 158.85 C 27.28 155.28 31.85 156.09 34.00 155.88 C 34.00 153.96 34.00 152.04 34.00 150.12 C 32.06 149.76 29.48 150.64 28.09 148.85 C 27.26 145.29 31.85 146.10 34.00 145.88 C 34.33 143.40 33.05 140.10 35.06 138.19 M 36.00 140.00 C 36.00 141.89 36.00 143.79 36.00 145.68 C 37.30 146.20 40.12 145.91 39.95 147.97 C 40.23 150.05 37.29 149.80 36.00 150.32 C 36.00 152.11 36.00 153.90 36.00 155.69 C 37.31 156.17 40.15 155.93 39.94 158.00 C 40.14 160.08 37.32 159.83 36.00 160.31 C 36.00 162.10 36.00 163.89 36.00 165.68 C 37.29 166.20 40.21 165.94 39.95 168.02 C 40.16 170.08 37.30 169.81 36.00 170.32 C 36.00 172.10 36.00 173.89 36.00 175.68 C 37.34 176.17 40.20 175.95 39.96 178.08 C 39.99 180.11 37.34 179.83 36.00 180.30 C 36.00 182.09 36.00 183.89 36.00 185.68 C 37.30 186.19 40.16 185.93 39.95 187.99 C 40.22 190.05 37.29 189.79 36.00 190.32 C 36.00 192.21 36.00 194.11 36.00 196.00 C 50.67 196.00 65.33 196.00 80.00 196.00 C 80.00 177.33 80.00 158.67 80.00 140.00 C 65.33 140.00 50.67 140.00 36.00 140.00 Z" />
<path fill="#0066b0" opacity="1.00" d=" M 50.14 152.02 C 56.70 151.99 63.26 152.00 69.82 152.01 C 69.83 152.50 69.85 153.49 69.86 153.98 C 63.30 154.01 56.74 154.00 50.18 153.99 C 50.17 153.50 50.15 152.51 50.14 152.02 Z" />
<path fill="#0066b0" opacity="1.00" d=" M 50.17 156.01 C 56.72 155.99 63.28 155.99 69.83 156.01 C 69.84 156.50 69.85 157.49 69.86 157.98 C 63.29 158.01 56.72 158.01 50.16 157.99 C 50.16 157.49 50.16 156.50 50.17 156.01 Z" />
<path fill="#0066b0" opacity="1.00" d=" M 50.14 186.02 C 56.71 185.99 63.28 185.99 69.85 186.01 C 69.85 186.51 69.84 187.50 69.83 187.99 C 63.28 188.00 56.73 188.01 50.17 187.99 C 50.16 187.50 50.15 186.51 50.14 186.02 Z" />
</g>
</svg>
