<svg width="13px" height="20px" viewBox="0 0 130 200" version="1.1" xmlns="http://www.w3.org/2000/svg">
<g id="#3e4950ff">
<path fill="#3e4950" opacity="1.00" d=" M 61.39 0.00 L 69.28 0.00 C 85.83 1.19 102.02 8.38 113.37 20.60 C 123.13 30.83 129.00 44.50 130.00 58.58 L 130.00 64.71 C 127.93 79.51 121.95 93.36 115.98 106.94 C 101.19 139.10 83.46 169.80 65.04 200.00 L 65.03 200.00 C 51.62 178.39 38.94 156.31 27.15 133.77 C 19.24 118.41 11.59 102.86 5.68 86.60 C 3.12 79.61 1.12 72.40 0.00 65.04 L 0.00 58.69 C 0.95 44.82 6.63 31.33 16.13 21.14 C 27.65 8.46 44.34 0.96 61.39 0.00 M 60.46 50.70 C 53.30 52.83 48.59 60.82 50.33 68.12 C 51.81 76.00 60.35 81.58 68.17 79.66 C 76.05 78.16 81.60 69.59 79.64 61.77 C 78.04 53.42 68.52 47.87 60.46 50.70 Z" />
</g>
<g id="#ffffffff">
<path fill="#ffffff" opacity="1.00" d=" M 60.46 50.70 C 68.52 47.87 78.04 53.42 79.64 61.77 C 81.60 69.59 76.05 78.16 68.17 79.66 C 60.35 81.58 51.81 76.00 50.33 68.12 C 48.59 60.82 53.30 52.83 60.46 50.70 Z" />
</g>
</svg>