<svg width="56px" height="112px" viewBox="0 0 560 1120" version="1.1" xmlns="http://www.w3.org/2000/svg">
<g id="#ffffffff">
<path fill="#ffffff" opacity="1.00" d=" M 166.31 130.56 C 167.81 130.01 169.43 130.01 171.01 129.99 C 244.02 130.02 317.04 129.98 390.05 130.01 C 395.46 129.65 400.40 134.56 400.00 139.98 C 400.00 233.35 400.00 326.73 400.00 420.11 C 400.38 425.52 395.41 430.33 390.04 429.98 C 318.02 430.03 245.99 429.97 173.97 430.01 C 170.78 429.94 167.26 430.40 164.46 428.52 C 161.57 426.79 159.86 423.42 160.00 420.08 C 160.03 326.34 159.94 232.60 160.05 138.87 C 160.18 135.16 162.85 131.79 166.31 130.56 M 170.00 140.00 C 170.01 233.33 170.01 326.67 170.00 420.00 C 243.33 419.99 316.67 419.99 390.00 420.00 C 389.99 326.67 389.99 233.33 390.00 140.00 C 316.67 140.01 243.33 140.01 170.00 140.00 Z" />
<path fill="#ffffff" opacity="1.00" d=" M 315.54 207.48 C 323.06 202.67 333.10 203.06 340.89 207.05 C 343.86 208.63 342.66 212.62 342.15 215.26 C 337.53 213.55 333.09 210.72 327.97 210.96 C 323.17 210.58 317.71 213.80 317.57 219.02 C 317.10 222.88 319.69 226.30 322.83 228.24 C 329.00 232.17 336.61 233.83 341.90 239.13 C 348.69 245.89 347.51 258.32 340.11 264.18 C 331.67 270.78 319.44 270.09 310.17 265.66 C 306.78 264.33 307.18 260.07 308.01 257.22 C 309.69 256.47 311.08 258.04 312.53 258.64 C 318.48 261.92 326.16 263.57 332.47 260.30 C 338.12 257.47 339.45 248.70 334.58 244.54 C 328.52 239.45 320.16 238.15 314.30 232.73 C 306.79 226.41 307.26 212.93 315.54 207.48 Z" />
<path fill="#ffffff" opacity="1.00" d=" M 213.19 206.66 C 213.27 204.47 215.53 205.03 217.02 204.96 C 219.12 204.92 221.90 204.64 222.96 206.96 C 227.41 214.59 231.87 222.21 236.24 229.89 C 240.64 222.29 245.01 214.68 249.40 207.09 C 251.06 203.58 255.74 205.12 258.77 205.52 C 258.52 207.89 257.02 209.80 255.87 211.80 C 251.08 219.82 246.29 227.84 241.52 235.87 C 247.60 246.30 254.15 256.48 259.75 267.17 C 256.88 268.33 253.40 268.47 250.52 267.39 C 245.54 259.12 240.99 250.58 236.14 242.23 C 235.99 242.23 235.69 242.24 235.53 242.24 C 231.07 249.84 226.76 257.54 222.39 265.20 C 221.79 266.30 220.88 267.17 220.02 268.05 C 217.44 267.99 214.82 268.19 212.31 267.49 C 212.49 266.89 212.86 265.69 213.04 265.09 C 218.74 255.35 224.69 245.74 230.41 236.00 C 224.76 226.17 218.71 216.56 213.19 206.66 Z" />
<path fill="#ffffff" opacity="1.00" d=" M 270.39 205.72 C 273.07 204.65 276.06 204.74 278.75 205.71 C 278.71 224.14 278.74 242.57 278.73 261.00 C 286.57 260.96 294.42 261.08 302.26 260.94 C 303.23 263.02 303.94 266.27 301.97 267.92 C 292.62 268.10 283.26 267.96 273.90 267.99 C 272.08 268.26 270.13 266.83 270.43 264.88 C 270.34 245.16 270.44 225.44 270.39 205.72 Z" />
<path fill="#ffffff" opacity="1.00" d=" M 222.49 330.68 C 223.84 329.84 225.49 330.05 227.01 329.98 C 263.07 330.05 299.14 329.92 335.20 330.05 C 338.57 329.96 341.07 333.95 339.59 336.98 C 338.70 339.15 336.28 340.22 334.03 340.00 C 297.61 339.96 261.19 340.07 224.77 339.95 C 219.95 340.07 218.23 332.83 222.49 330.68 Z" />
<path fill="#ffffff" opacity="1.00" d=" M 222.45 350.70 C 223.80 349.84 225.46 350.05 226.98 349.98 C 262.31 350.01 297.65 350.01 332.98 349.98 C 335.30 349.82 338.07 350.16 339.29 352.44 C 341.62 355.95 338.10 360.75 334.07 360.00 C 297.68 359.97 261.30 360.06 224.92 359.96 C 220.04 360.21 218.17 352.91 222.45 350.70 Z" />
<path fill="#ffffff" opacity="1.00" d=" M 222.43 370.71 C 224.41 369.60 226.79 370.11 228.96 369.99 C 264.37 370.05 299.78 369.93 335.19 370.05 C 338.55 369.96 341.06 373.92 339.60 376.95 C 338.73 379.11 336.34 380.22 334.10 380.00 C 297.66 379.97 261.23 380.07 224.79 379.95 C 219.99 380.09 218.23 372.91 222.43 370.71 Z" />
</g>
<g id="#0066b0ff">
<path fill="#0066b0" opacity="1.00" d=" M 166.39 690.53 C 169.19 689.69 172.16 690.06 175.04 689.99 C 245.04 690.00 315.03 690.00 385.03 689.99 C 387.88 690.06 390.82 689.69 393.60 690.53 C 397.49 691.84 400.23 695.83 399.99 699.94 C 400.00 793.30 400.00 886.66 399.99 980.02 C 400.42 985.46 395.46 990.32 390.05 989.98 C 318.38 990.04 246.72 989.97 175.05 990.01 C 172.40 989.97 169.72 990.16 167.11 989.66 C 162.84 988.64 159.73 984.39 160.00 980.01 C 160.00 886.67 160.00 793.33 160.00 699.99 C 159.75 695.86 162.49 691.85 166.39 690.53 M 170.00 700.00 C 170.00 793.33 170.00 886.67 170.00 980.00 C 243.33 980.00 316.67 980.00 390.00 980.00 C 390.00 886.67 390.00 793.33 390.00 700.00 C 316.67 700.00 243.33 700.00 170.00 700.00 Z" />
<path fill="#0066b0" opacity="1.00" d=" M 315.54 767.48 C 323.09 762.66 333.19 763.06 340.98 767.11 C 343.86 768.73 342.63 772.64 342.14 775.27 C 337.22 773.33 332.37 770.42 326.86 770.98 C 322.39 770.99 317.70 774.24 317.57 779.00 C 317.09 782.86 319.68 786.30 322.82 788.23 C 329.15 792.28 337.07 793.93 342.33 799.59 C 346.71 804.24 347.32 811.40 345.17 817.22 C 343.27 822.14 338.95 825.94 333.97 827.57 C 326.01 830.19 317.00 829.19 309.61 825.34 C 306.49 823.71 307.61 819.72 307.93 816.95 C 310.82 817.08 313.02 819.24 315.68 820.14 C 321.11 822.38 327.77 823.09 333.02 819.99 C 336.72 817.80 338.17 813.08 337.37 809.01 C 336.25 805.04 332.57 802.69 329.08 800.98 C 323.60 798.35 317.65 796.19 313.30 791.77 C 306.81 785.15 307.68 772.67 315.54 767.48 Z" />
<path fill="#0066b0" opacity="1.00" d=" M 213.85 764.95 C 216.83 765.41 221.09 763.70 222.93 766.93 C 227.41 774.56 231.86 782.21 236.24 789.90 C 240.58 782.37 244.92 774.84 249.27 767.32 C 250.88 763.55 255.80 765.02 258.91 765.64 C 258.52 766.93 258.00 768.16 257.34 769.35 C 252.05 778.18 246.76 787.02 241.52 795.89 C 247.62 806.30 254.13 816.49 259.76 827.16 C 256.89 828.31 253.45 828.47 250.56 827.41 C 245.35 819.05 241.02 810.13 235.70 801.84 C 231.38 809.46 226.98 817.03 222.70 824.68 C 222.03 825.95 221.04 827.03 220.04 828.06 C 217.66 827.95 215.25 828.20 212.92 827.67 C 211.78 826.43 213.20 824.92 213.74 823.79 C 219.33 814.55 224.90 805.29 230.41 796.00 C 225.20 787.10 219.92 778.23 214.63 769.37 C 213.93 768.03 212.61 766.44 213.85 764.95 Z" />
<path fill="#0066b0" opacity="1.00" d=" M 270.39 765.71 C 273.09 764.69 276.05 764.73 278.76 765.71 C 278.70 784.14 278.75 802.57 278.73 821.00 C 286.58 820.97 294.42 821.07 302.26 820.94 C 303.21 823.01 303.97 826.30 301.96 827.91 C 292.62 828.11 283.27 827.96 273.94 827.99 C 272.13 828.25 270.16 826.87 270.44 824.92 C 270.33 805.18 270.45 785.44 270.39 765.71 Z" />
<path fill="#0066b0" opacity="1.00" d=" M 222.42 890.72 C 223.78 889.84 225.47 890.05 227.02 889.98 C 263.06 890.06 299.10 889.92 335.13 890.05 C 338.18 889.94 340.67 893.20 339.87 896.13 C 339.33 898.74 336.60 900.29 334.05 900.00 C 297.66 899.97 261.26 900.07 224.87 899.94 C 220.04 900.16 218.20 892.94 222.42 890.72 Z" />
<path fill="#0066b0" opacity="1.00" d=" M 222.45 910.70 C 223.81 909.85 225.47 910.04 227.00 909.98 C 262.69 910.03 298.38 909.98 334.07 910.00 C 337.04 909.56 340.08 911.91 340.01 915.01 C 340.07 918.07 337.05 920.39 334.10 920.00 C 298.38 920.02 262.67 919.97 226.95 920.02 C 225.06 919.99 222.87 920.06 221.49 918.54 C 219.15 916.41 219.70 912.21 222.45 910.70 Z" />
<path fill="#0066b0" opacity="1.00" d=" M 222.49 930.68 C 223.84 929.84 225.50 930.04 227.02 929.98 C 263.06 930.06 299.11 929.92 335.15 930.05 C 338.55 929.93 341.08 933.95 339.58 936.99 C 338.69 939.17 336.25 940.21 334.00 940.00 C 297.62 939.96 261.24 940.07 224.86 939.95 C 220.00 940.16 218.20 932.86 222.49 930.68 Z" />
</g>
</svg>